<mxfile host="app.diagrams.net" agent="Mozilla/5.0 (Windows NT 10.0; Win64; x64) AppleWebKit/537.36 (KHTML, like Gecko) Chrome/121.0.0.0 Safari/537.36" version="27.0.6">
  <diagram id="5jEfxVwqZtwkkLB00oML" name="Page-1">
    <mxGraphModel dx="1985" dy="971" grid="0" gridSize="10" guides="1" tooltips="1" connect="1" arrows="1" fold="1" page="0" pageScale="1" pageWidth="827" pageHeight="1169" math="0" shadow="0">
      <root>
        <mxCell id="0" />
        <mxCell id="1" parent="0" />
        <mxCell id="sxp22dgJaoITWx5tHbdO-2" value="北斗API" style="ellipse;whiteSpace=wrap;html=1;labelBackgroundColor=none;fillColor=#FAE5C7;strokeColor=#0F8B8D;fontColor=#143642;" parent="1" vertex="1">
          <mxGeometry x="39" y="-247" width="171" height="80" as="geometry" />
        </mxCell>
        <mxCell id="sxp22dgJaoITWx5tHbdO-3" value="设备1" style="ellipse;whiteSpace=wrap;html=1;labelBackgroundColor=none;fillColor=#FAE5C7;strokeColor=#0F8B8D;fontColor=#143642;" parent="1" vertex="1">
          <mxGeometry x="63" y="-10" width="120" height="80" as="geometry" />
        </mxCell>
        <mxCell id="sxp22dgJaoITWx5tHbdO-5" value="中间件" style="ellipse;whiteSpace=wrap;html=1;labelBackgroundColor=none;fillColor=#FAE5C7;strokeColor=#0F8B8D;fontColor=#143642;" parent="1" vertex="1">
          <mxGeometry x="-265" y="-123" width="120" height="80" as="geometry" />
        </mxCell>
        <mxCell id="sxp22dgJaoITWx5tHbdO-6" value="556平台" style="ellipse;whiteSpace=wrap;html=1;labelBackgroundColor=none;fillColor=#FAE5C7;strokeColor=#0F8B8D;fontColor=#143642;" parent="1" vertex="1">
          <mxGeometry x="-528" y="-247" width="170" height="80" as="geometry" />
        </mxCell>
        <mxCell id="sxp22dgJaoITWx5tHbdO-9" value="" style="endArrow=classic;html=1;rounded=0;entryX=0.892;entryY=0.775;entryDx=0;entryDy=0;entryPerimeter=0;exitX=0.021;exitY=0.306;exitDx=0;exitDy=0;exitPerimeter=0;labelBackgroundColor=none;strokeColor=#A8201A;fontColor=default;" parent="1" source="sxp22dgJaoITWx5tHbdO-5" target="sxp22dgJaoITWx5tHbdO-6" edge="1">
          <mxGeometry width="50" height="50" relative="1" as="geometry">
            <mxPoint x="-451" y="-36" as="sourcePoint" />
            <mxPoint x="-401" y="-86" as="targetPoint" />
          </mxGeometry>
        </mxCell>
        <mxCell id="sxp22dgJaoITWx5tHbdO-20" value="转发" style="edgeLabel;html=1;align=center;verticalAlign=middle;resizable=0;points=[];labelBackgroundColor=none;fontColor=#143642;" parent="sxp22dgJaoITWx5tHbdO-9" vertex="1" connectable="0">
          <mxGeometry x="-0.1501" y="-1" relative="1" as="geometry">
            <mxPoint y="16" as="offset" />
          </mxGeometry>
        </mxCell>
        <mxCell id="sxp22dgJaoITWx5tHbdO-10" value="" style="endArrow=classic;html=1;rounded=0;exitX=0.983;exitY=0.625;exitDx=0;exitDy=0;exitPerimeter=0;entryX=0;entryY=0;entryDx=0;entryDy=0;labelBackgroundColor=none;strokeColor=#A8201A;fontColor=default;" parent="1" source="sxp22dgJaoITWx5tHbdO-6" target="sxp22dgJaoITWx5tHbdO-5" edge="1">
          <mxGeometry width="50" height="50" relative="1" as="geometry">
            <mxPoint x="-426" y="-15" as="sourcePoint" />
            <mxPoint x="-255" y="-111" as="targetPoint" />
          </mxGeometry>
        </mxCell>
        <mxCell id="sxp22dgJaoITWx5tHbdO-19" value="监听" style="edgeLabel;html=1;align=center;verticalAlign=middle;resizable=0;points=[];labelBackgroundColor=none;fontColor=#143642;" parent="sxp22dgJaoITWx5tHbdO-10" vertex="1" connectable="0">
          <mxGeometry x="0.2894" y="-1" relative="1" as="geometry">
            <mxPoint y="-13" as="offset" />
          </mxGeometry>
        </mxCell>
        <mxCell id="sxp22dgJaoITWx5tHbdO-13" value="" style="endArrow=classic;html=1;rounded=0;entryX=0.436;entryY=0.994;entryDx=0;entryDy=0;exitX=0.354;exitY=0;exitDx=0;exitDy=0;exitPerimeter=0;entryPerimeter=0;labelBackgroundColor=none;strokeColor=#A8201A;fontColor=default;" parent="1" source="sxp22dgJaoITWx5tHbdO-3" target="sxp22dgJaoITWx5tHbdO-2" edge="1">
          <mxGeometry width="50" height="50" relative="1" as="geometry">
            <mxPoint x="209" y="-57" as="sourcePoint" />
            <mxPoint x="104" y="-141" as="targetPoint" />
          </mxGeometry>
        </mxCell>
        <mxCell id="sxp22dgJaoITWx5tHbdO-27" value="上传" style="edgeLabel;html=1;align=center;verticalAlign=middle;resizable=0;points=[];labelBackgroundColor=none;fontColor=#143642;" parent="sxp22dgJaoITWx5tHbdO-13" vertex="1" connectable="0">
          <mxGeometry x="0.0687" y="2" relative="1" as="geometry">
            <mxPoint x="-12" as="offset" />
          </mxGeometry>
        </mxCell>
        <mxCell id="sxp22dgJaoITWx5tHbdO-14" value="" style="endArrow=classic;html=1;rounded=0;exitX=0.5;exitY=1;exitDx=0;exitDy=0;entryX=0.438;entryY=0.025;entryDx=0;entryDy=0;entryPerimeter=0;labelBackgroundColor=none;strokeColor=#A8201A;fontColor=default;" parent="1" source="sxp22dgJaoITWx5tHbdO-2" target="sxp22dgJaoITWx5tHbdO-3" edge="1">
          <mxGeometry width="50" height="50" relative="1" as="geometry">
            <mxPoint x="134" y="-170" as="sourcePoint" />
            <mxPoint x="118" y="-17" as="targetPoint" />
          </mxGeometry>
        </mxCell>
        <mxCell id="sxp22dgJaoITWx5tHbdO-26" value="拉取" style="edgeLabel;html=1;align=center;verticalAlign=middle;resizable=0;points=[];labelBackgroundColor=none;fontColor=#143642;" parent="sxp22dgJaoITWx5tHbdO-14" vertex="1" connectable="0">
          <mxGeometry x="-0.0211" y="-2" relative="1" as="geometry">
            <mxPoint x="16" as="offset" />
          </mxGeometry>
        </mxCell>
        <mxCell id="sxp22dgJaoITWx5tHbdO-15" value="" style="endArrow=classic;html=1;rounded=0;exitX=0.083;exitY=0.756;exitDx=0;exitDy=0;exitPerimeter=0;labelBackgroundColor=none;strokeColor=#A8201A;fontColor=default;" parent="1" source="sxp22dgJaoITWx5tHbdO-2" target="sxp22dgJaoITWx5tHbdO-5" edge="1">
          <mxGeometry width="50" height="50" relative="1" as="geometry">
            <mxPoint x="-4" y="-128" as="sourcePoint" />
            <mxPoint x="-101" y="-208" as="targetPoint" />
          </mxGeometry>
        </mxCell>
        <mxCell id="sxp22dgJaoITWx5tHbdO-21" value="响应" style="edgeLabel;html=1;align=center;verticalAlign=middle;resizable=0;points=[];labelBackgroundColor=none;fontColor=#143642;" parent="sxp22dgJaoITWx5tHbdO-15" vertex="1" connectable="0">
          <mxGeometry x="-0.1166" y="-1" relative="1" as="geometry">
            <mxPoint y="13" as="offset" />
          </mxGeometry>
        </mxCell>
        <mxCell id="sxp22dgJaoITWx5tHbdO-16" value="" style="endArrow=classic;html=1;rounded=0;exitX=1;exitY=0;exitDx=0;exitDy=0;entryX=0.042;entryY=0.625;entryDx=0;entryDy=0;entryPerimeter=0;labelBackgroundColor=none;strokeColor=#A8201A;fontColor=default;" parent="1" source="sxp22dgJaoITWx5tHbdO-5" target="sxp22dgJaoITWx5tHbdO-2" edge="1">
          <mxGeometry width="50" height="50" relative="1" as="geometry">
            <mxPoint x="-102" y="-226" as="sourcePoint" />
            <mxPoint x="3" y="-140" as="targetPoint" />
          </mxGeometry>
        </mxCell>
        <mxCell id="sxp22dgJaoITWx5tHbdO-24" value="发送" style="edgeLabel;html=1;align=center;verticalAlign=middle;resizable=0;points=[];labelBackgroundColor=none;fontColor=#143642;" parent="sxp22dgJaoITWx5tHbdO-16" vertex="1" connectable="0">
          <mxGeometry x="0.0251" y="1" relative="1" as="geometry">
            <mxPoint y="-12" as="offset" />
          </mxGeometry>
        </mxCell>
        <mxCell id="xRpIABg2I_OMiTRP1_z1-4" value="“发命令超时5分钟”不转发" style="text;html=1;align=center;verticalAlign=middle;resizable=0;points=[];autosize=1;strokeColor=none;fillColor=none;labelBackgroundColor=none;fontColor=#143642;" parent="1" vertex="1">
          <mxGeometry x="-446" y="44" width="153" height="26" as="geometry" />
        </mxCell>
        <mxCell id="xRpIABg2I_OMiTRP1_z1-9" style="edgeStyle=orthogonalEdgeStyle;rounded=0;orthogonalLoop=1;jettySize=auto;html=1;exitX=0.1;exitY=0.5;exitDx=0;exitDy=0;exitPerimeter=0;entryX=0.5;entryY=1;entryDx=0;entryDy=0;strokeColor=#A8201A;fontColor=#143642;fillColor=#FAE5C7;" parent="1" source="xRpIABg2I_OMiTRP1_z1-7" target="sxp22dgJaoITWx5tHbdO-5" edge="1">
          <mxGeometry relative="1" as="geometry" />
        </mxCell>
        <mxCell id="xRpIABg2I_OMiTRP1_z1-7" value="" style="shape=curlyBracket;whiteSpace=wrap;html=1;rounded=1;labelPosition=left;verticalLabelPosition=middle;align=right;verticalAlign=middle;strokeColor=#0F8B8D;fontColor=#143642;fillColor=#FAE5C7;rotation=90;size=0.5;" parent="1" vertex="1">
          <mxGeometry x="-215" y="-127" width="20" height="289" as="geometry" />
        </mxCell>
        <mxCell id="1OVgLaUYHCrjpHC6Mpth-5" value="报文前缀识别" style="text;html=1;align=center;verticalAlign=middle;resizable=0;points=[];autosize=1;strokeColor=none;fillColor=none;" vertex="1" parent="1">
          <mxGeometry x="-105" y="41" width="90" height="26" as="geometry" />
        </mxCell>
        <mxCell id="1OVgLaUYHCrjpHC6Mpth-19" value="&lt;span style=&quot;text-wrap: nowrap;&quot;&gt;&lt;font style=&quot;font-size: 18px;&quot;&gt;还需要再增加类似的消息确认机制：&lt;/font&gt;&lt;/span&gt;&lt;div style=&quot;text-wrap: nowrap;&quot;&gt;&lt;font size=&quot;3&quot;&gt;&lt;span style=&quot;background-color: transparent;&quot;&gt;方案一、改程序，&lt;/span&gt;&lt;span style=&quot;background-color: transparent;&quot;&gt;增加上传消息确认机制，参考TCP三次握手&lt;/span&gt;&lt;/font&gt;&lt;/div&gt;&lt;div style=&quot;text-wrap: nowrap;&quot;&gt;&lt;font size=&quot;3&quot;&gt;方案二、北斗厂家修改间隔10分钟清空消息队列&lt;/font&gt;&lt;/div&gt;" style="whiteSpace=wrap;html=1;shape=mxgraph.basic.roundRectCallout;dx=30;dy=15;size=5;boundedLbl=1;" vertex="1" parent="1">
          <mxGeometry x="-374" y="152" width="460" height="81" as="geometry" />
        </mxCell>
        <mxCell id="1OVgLaUYHCrjpHC6Mpth-20" value="&lt;font style=&quot;font-size: 14px;&quot;&gt;&lt;span style=&quot;text-wrap: nowrap;&quot;&gt;但是会出现：&lt;/span&gt;&lt;br style=&quot;text-wrap: nowrap;&quot;&gt;&lt;span style=&quot;text-wrap: nowrap;&quot;&gt;因信号问题，消息延迟下发/上传，&lt;/span&gt;&lt;/font&gt;&lt;div&gt;&lt;span style=&quot;text-wrap: nowrap;&quot;&gt;&lt;font size=&quot;3&quot;&gt;设备响应了报文，&lt;/font&gt;&lt;/span&gt;&lt;div&gt;&lt;span style=&quot;text-wrap: nowrap;&quot;&gt;&lt;font size=&quot;3&quot;&gt;但“超时5min机制”限制平台展示&lt;/font&gt;&lt;/span&gt;&lt;/div&gt;&lt;/div&gt;" style="whiteSpace=wrap;html=1;shape=mxgraph.basic.roundRectCallout;dx=30;dy=15;size=5;boundedLbl=1;" vertex="1" parent="1">
          <mxGeometry x="183" y="-104" width="306" height="98" as="geometry" />
        </mxCell>
      </root>
    </mxGraphModel>
  </diagram>
</mxfile>
